<svg width="628" height="973" viewBox="0 0 628 973" fill="none" xmlns="http://www.w3.org/2000/svg">
<g filter="url(#filter0_d_1_11)">
<path d="M154 962L203 320L522.013 392.4C556.313 400.185 573.464 404.077 581.976 413.599C589.406 421.909 593.03 432.943 591.976 444.04C590.768 456.755 579.267 470.059 556.265 496.668L154 962Z" fill="url(#paint0_linear_1_11)"/>
<path d="M555.887 496.341L154.614 960.525L203.454 320.616L521.902 392.888C539.062 396.782 551.898 399.696 561.51 402.823C571.124 405.951 577.436 409.271 581.603 413.932C588.94 422.138 592.519 433.034 591.478 443.993C590.887 450.217 587.773 456.633 581.887 464.853C576.002 473.071 567.394 483.029 555.887 496.341Z" stroke="black"/>
</g>
<g filter="url(#filter1_b_1_11)">
<path d="M474 0L419 641L77.8762 562.029C52.187 556.081 39.3424 553.108 32.9895 545.941C27.4447 539.686 24.7609 531.402 25.5848 523.084C26.5288 513.553 35.19 503.613 52.5124 483.733L474 0Z" fill="white" fill-opacity="0.55"/>
<path d="M52.8894 484.061L473.371 1.48312L418.551 640.383L77.989 561.541C65.1348 558.566 55.528 556.341 48.3385 553.967C41.1476 551.593 36.451 549.093 33.3636 545.61C27.9112 539.459 25.2722 531.312 26.0824 523.133C26.5412 518.501 28.8792 513.722 33.3121 507.582C37.7441 501.444 44.2218 494.009 52.8894 484.061Z" stroke="black"/>
</g>
<defs>
<filter id="filter0_d_1_11" x="150" y="320" width="446.156" height="650" filterUnits="userSpaceOnUse" color-interpolation-filters="sRGB">
<feFlood flood-opacity="0" result="BackgroundImageFix"/>
<feColorMatrix in="SourceAlpha" type="matrix" values="0 0 0 0 0 0 0 0 0 0 0 0 0 0 0 0 0 0 127 0" result="hardAlpha"/>
<feOffset dy="4"/>
<feGaussianBlur stdDeviation="2"/>
<feComposite in2="hardAlpha" operator="out"/>
<feColorMatrix type="matrix" values="0 0 0 0 0 0 0 0 0 0 0 0 0 0 0 0 0 0 0.25 0"/>
<feBlend mode="normal" in2="BackgroundImageFix" result="effect1_dropShadow_1_11"/>
<feBlend mode="normal" in="SourceGraphic" in2="effect1_dropShadow_1_11" result="shape"/>
</filter>
<filter id="filter1_b_1_11" x="5.43863" y="-20" width="488.561" height="681" filterUnits="userSpaceOnUse" color-interpolation-filters="sRGB">
<feFlood flood-opacity="0" result="BackgroundImageFix"/>
<feGaussianBlur in="BackgroundImageFix" stdDeviation="10"/>
<feComposite in2="SourceAlpha" operator="in" result="effect1_backgroundBlur_1_11"/>
<feBlend mode="normal" in="SourceGraphic" in2="effect1_backgroundBlur_1_11" result="shape"/>
</filter>
<linearGradient id="paint0_linear_1_11" x1="383.756" y1="967.158" x2="398.185" y2="324.382" gradientUnits="userSpaceOnUse">
<stop offset="0.28" stop-color="#FF9A02"/>
<stop offset="1" stop-color="#FF0000"/>
</linearGradient>
</defs>
</svg>
